<?xml version="1.0" encoding="UTF-8" standalone="no"?>
<svg
   xmlns:dc="http://purl.org/dc/elements/1.1/"
   xmlns:cc="http://creativecommons.org/ns#"
   xmlns:rdf="http://www.w3.org/1999/02/22-rdf-syntax-ns#"
   xmlns:svg="http://www.w3.org/2000/svg"
   xmlns="http://www.w3.org/2000/svg"
   xmlns:sodipodi="http://sodipodi.sourceforge.net/DTD/sodipodi-0.dtd"
   xmlns:inkscape="http://www.inkscape.org/namespaces/inkscape"
   id="Capa_1"
   enable-background="new 0 0 512 512"
   height="512"
   viewBox="0 0 512 512"
   width="512"
   version="1.1"
   sodipodi:docname="access.svg"
   inkscape:version="0.92.5 (2060ec1f9f, 2020-04-08)">
  <metadata
     id="metadata19">
    <rdf:RDF>
      <cc:Work
         rdf:about="">
        <dc:format>image/svg+xml</dc:format>
        <dc:type
           rdf:resource="http://purl.org/dc/dcmitype/StillImage" />
        <dc:title />
      </cc:Work>
    </rdf:RDF>
  </metadata>
  <defs
     id="defs17" />
  <sodipodi:namedview
     pagecolor="#ffffff"
     bordercolor="#666666"
     borderopacity="1"
     objecttolerance="10"
     gridtolerance="10"
     guidetolerance="10"
     inkscape:pageopacity="0"
     inkscape:pageshadow="2"
     inkscape:window-width="3368"
     inkscape:window-height="1376"
     id="namedview15"
     showgrid="false"
     inkscape:zoom="0.79540561"
     inkscape:cx="-76.218003"
     inkscape:cy="-33.38883"
     inkscape:window-x="72"
     inkscape:window-y="27"
     inkscape:window-maximized="1"
     inkscape:current-layer="Capa_1" />
  <g
     id="g12"
     transform="matrix(0.8,0,0,0.8,51.2,51.2)">
    <path
       d="M 437.02,74.981 C 388.667,26.629 324.38,0 256,0 188.082,0 124.104,26.32 75.854,74.112 27.637,121.87 0.703,185.524 0.014,253.348 L 0,270.958 85.333,271 V 241 H 30.501 C 34.095,185.899 57.412,134.603 96.965,95.426 139.561,53.236 196.041,30 256,30 c 60.367,0 117.12,23.508 159.806,66.194 39.13,39.13 62.13,90.086 65.692,144.806 h -54.832 v 30 h 54.835 c -5.109,77.291 -49.465,146.863 -118.336,184.029 l 14.247,26.401 C 460.429,436.63 512,350.25 512,256 512,187.62 485.371,123.333 437.02,74.981 Z"
       id="path2"
       inkscape:connector-curvature="0" />
    <path
       d="m 300.941,411.366 h -48.884 v -65.949 h -30 V 512 h 30 v -70.634 h 48.884 V 512 h 30 V 345.417 h -30 z"
       id="path4"
       inkscape:connector-curvature="0" />
    <path
       d="M 0,375.852 H 29.1 V 512 h 30 V 345.852 H 0 Z"
       id="path6"
       inkscape:connector-curvature="0" />
    <path
       d="m 137.646,481.86 c 7.948,-10.238 18.831,-24.852 33,-45.096 8.668,-12.385 17.858,-25.431 17.858,-43.424 0,-26.34 -22.357,-49.838 -49.837,-49.838 -23.761,0 -44.328,16.904 -48.903,40.194 l 29.438,5.782 c 1.818,-9.257 10.005,-15.976 19.465,-15.976 10.663,0 19.388,8.457 19.821,19.015 l -0.431,3.373 c -1.709,6.784 -5.74,14.744 -11.989,23.672 -32.816,46.887 -51.399,66.687 -51.399,66.687 L 94.575,512 h 95.993 l 0.079,-30 z"
       id="path8"
       inkscape:connector-curvature="0" />
    <path
       d="m 309.436,256 c 0,-24.257 -16.253,-44.778 -38.436,-51.278 V 127.416 L 292.857,149.274 314.07,128.061 256,69.99 197.929,128.061 219.142,149.274 241,127.416 v 77.306 c -22.184,6.501 -38.437,27.021 -38.437,51.278 0,29.465 23.972,53.436 53.437,53.436 29.465,0 53.436,-23.971 53.436,-53.436 z m -76.873,0 c 0,-12.923 10.514,-23.436 23.437,-23.436 12.923,0 23.436,10.513 23.436,23.436 0,12.923 -10.513,23.436 -23.436,23.436 -12.923,0 -23.437,-10.513 -23.437,-23.436 z"
       id="path10"
       inkscape:connector-curvature="0" />
  </g>
</svg>
