<?xml version="1.0" encoding="UTF-8" standalone="no"?>
<svg
   xmlns:dc="http://purl.org/dc/elements/1.1/"
   xmlns:cc="http://creativecommons.org/ns#"
   xmlns:rdf="http://www.w3.org/1999/02/22-rdf-syntax-ns#"
   xmlns:svg="http://www.w3.org/2000/svg"
   xmlns="http://www.w3.org/2000/svg"
   xmlns:sodipodi="http://sodipodi.sourceforge.net/DTD/sodipodi-0.dtd"
   xmlns:inkscape="http://www.inkscape.org/namespaces/inkscape"
   id="Capa_1"
   enable-background="new 0 0 512.004 512.004"
   height="512"
   viewBox="0 0 512.004 512.004"
   width="512"
   version="1.1"
   sodipodi:docname="send2.svg"
   inkscape:version="0.92.5 (2060ec1f9f, 2020-04-08)">
  <metadata
     id="metadata17">
    <rdf:RDF>
      <cc:Work
         rdf:about="">
        <dc:format>image/svg+xml</dc:format>
        <dc:type
           rdf:resource="http://purl.org/dc/dcmitype/StillImage" />
      </cc:Work>
    </rdf:RDF>
  </metadata>
  <defs
     id="defs15" />
  <sodipodi:namedview
     pagecolor="#ffffff"
     bordercolor="#666666"
     borderopacity="1"
     objecttolerance="10"
     gridtolerance="10"
     guidetolerance="10"
     inkscape:pageopacity="0"
     inkscape:pageshadow="2"
     inkscape:window-width="3368"
     inkscape:window-height="1376"
     id="namedview13"
     showgrid="false"
     inkscape:zoom="0.4609375"
     inkscape:cx="20.610169"
     inkscape:cy="238.64407"
     inkscape:window-x="72"
     inkscape:window-y="27"
     inkscape:window-maximized="1"
     inkscape:current-layer="Capa_1" />
  <g
     id="g10">
    <path
       d="m511.35 52.881-122 400c-3.044 9.919-14.974 13.828-23.29 7.67-7.717-5.727-203.749-151.217-214.37-159.1l-142.1-54.96c-5.79-2.24-9.6-7.81-9.59-14.02.01-6.21 3.85-11.77 9.65-13.98l482-184c5.824-2.232 12.488-.626 16.67 4.17 3.37 3.87 4.55 9.24 3.03 14.22z"
       fill="#94dfda"
       id="path2"
       style="fill:#000080" />
    <path
       d="m511.35 52.881-122 400c-3.044 9.919-14.974 13.828-23.29 7.67l-190.05-141.05 332.31-280.84c3.37 3.87 4.55 9.24 3.03 14.22z"
       fill="#61a7c5"
       id="path4"
       style="fill:#87ceeb" />
    <path
       d="m507.89 58.821-271.49 286.4-63 125.03c-3.16 6.246-10.188 9.453-16.87 7.84-6.76-1.6-11.53-7.64-11.53-14.59v-175.3c0-4.86 2.35-9.41 6.31-12.23l337-239.69c6.29-4.48 14.95-3.45 20.01 2.38 5.07 5.83 4.88 14.56-.43 20.16z"
       fill="#eef4ff"
       id="path6"
       style="fill:#d3d3d3" />
    <path
       d="m507.89 58.821-271.49 286.4-63 125.03c-3.16 6.246-10.188 9.453-16.87 7.84-6.76-1.6-11.53-7.64-11.53-14.59l31.01-144 332.31-280.84c5.07 5.83 4.88 14.56-.43 20.16z"
       fill="#d9e6fc"
       id="path8"
       style="fill:#ffffff" />
  </g>
</svg>
