<?xml version="1.0" encoding="UTF-8" standalone="no"?>
<svg
   xmlns:dc="http://purl.org/dc/elements/1.1/"
   xmlns:cc="http://creativecommons.org/ns#"
   xmlns:rdf="http://www.w3.org/1999/02/22-rdf-syntax-ns#"
   xmlns:svg="http://www.w3.org/2000/svg"
   xmlns="http://www.w3.org/2000/svg"
   xmlns:sodipodi="http://sodipodi.sourceforge.net/DTD/sodipodi-0.dtd"
   xmlns:inkscape="http://www.inkscape.org/namespaces/inkscape"
   id="Layer_3"
   height="512"
   viewBox="0 0 64 64"
   width="512"
   data-name="Layer 3"
   version="1.1"
   sodipodi:docname="storage.svg"
   inkscape:version="0.92.5 (2060ec1f9f, 2020-04-08)">
  <metadata
     id="metadata35">
    <rdf:RDF>
      <cc:Work
         rdf:about="">
        <dc:format>image/svg+xml</dc:format>
        <dc:type
           rdf:resource="http://purl.org/dc/dcmitype/StillImage" />
        <dc:title />
      </cc:Work>
    </rdf:RDF>
  </metadata>
  <defs
     id="defs33" />
  <sodipodi:namedview
     pagecolor="#ffffff"
     bordercolor="#666666"
     borderopacity="1"
     objecttolerance="10"
     gridtolerance="10"
     guidetolerance="10"
     inkscape:pageopacity="0"
     inkscape:pageshadow="2"
     inkscape:window-width="3368"
     inkscape:window-height="1376"
     id="namedview31"
     showgrid="false"
     inkscape:zoom="0.64871961"
     inkscape:cx="-153.82568"
     inkscape:cy="202.21475"
     inkscape:window-x="72"
     inkscape:window-y="27"
     inkscape:window-maximized="1"
     inkscape:current-layer="Layer_3" />
  <g
     id="g842"
     transform="matrix(0.8,0,0,0.8,6.4,6.4077)"
     style="fill:#0b0b28">
    <path
       id="path2"
       d="m 36,51 h 20 v 4 H 36 Z"
       inkscape:connector-curvature="0"
       style="fill:#0b0b28" />
    <path
       id="path4"
       d="m 36,45 h 20 v 4 H 36 Z"
       inkscape:connector-curvature="0"
       style="fill:#0b0b28" />
    <path
       id="path6"
       d="m 36,57 h 20 v 4 H 36 Z"
       inkscape:connector-curvature="0"
       style="fill:#0b0b28" />
    <path
       id="path8"
       d="M 32,3.077 7.192,13 h 49.616 z"
       inkscape:connector-curvature="0"
       style="fill:#0b0b28" />
    <path
       id="path10"
       d="m 19,37 h 9 v 2 h -9 z"
       inkscape:connector-curvature="0"
       style="fill:#0b0b28" />
    <path
       id="path12"
       d="m 8,45 h 20 v 2 H 8 Z"
       inkscape:connector-curvature="0"
       style="fill:#0b0b28" />
    <path
       id="path14"
       d="M 8,49 H 28 V 61 H 8 Z"
       inkscape:connector-curvature="0"
       style="fill:#0b0b28" />
    <path
       id="path16"
       d="m 8,37 h 9 v 2 H 8 Z"
       inkscape:connector-curvature="0"
       style="fill:#0b0b28" />
    <path
       id="path18"
       d="m 47,37 h 9 v 2 h -9 z"
       inkscape:connector-curvature="0"
       style="fill:#0b0b28" />
    <path
       id="path20"
       d="m 36,37 h 9 v 2 h -9 z"
       inkscape:connector-curvature="0"
       style="fill:#0b0b28" />
    <path
       sodipodi:nodetypes="cccssssccssssccccssssssssssssssssss"
       inkscape:connector-curvature="0"
       id="path22"
       d="M 3,15 V 61 H 6 V 44 c 0,-0.552285 0.4477153,-1 1,-1 h 22 c 0.552285,0 1,0.447715 1,1 v 17 h 4 V 44 c 0,-0.552285 0.447715,-1 1,-1 h 22 c 0.552285,0 1,0.447715 1,1 v 17 h 3 V 15 Z m 27,25 c 0,0.552285 -0.447715,1 -1,1 H 7 C 6.4477153,41 6,40.552285 6,40 v -4 c 0,-0.552285 0.4477153,-1 1,-1 h 22 c 0.552285,0 1,0.447715 1,1 z m 28,0 c 0,0.552285 -0.447715,1 -1,1 H 35 c -0.552285,0 -1,-0.447715 -1,-1 v -4 c 0,-0.552285 0.447715,-1 1,-1 h 22 c 0.552285,0 1,0.447715 1,1 z"
       style="fill:#0b0b28" />
    <path
       id="path24"
       d="m 41,26 a 3,3 0 0 1 2.816,2 H 47 V 27.3 A 3.3,3.3 0 0 0 43.7,24 H 40 A 1,1 0 0 1 39.293,23.707 L 36.707,21.121 A 3.853,3.853 0 0 0 34,20 h -7 a 3.808,3.808 0 0 0 -2.707,1.121 l -1.586,1.586 A 1,1 0 0 1 22,23 5.006,5.006 0 0 0 17,28 h 2.184 a 2.982,2.982 0 0 1 5.632,0 H 38.184 A 3,3 0 0 1 41,26 Z"
       inkscape:connector-curvature="0"
       style="fill:#0b0b28" />
    <circle
       id="circle26"
       r="1"
       cy="29"
       cx="22"
       style="fill:#0b0b28" />
    <circle
       id="circle28"
       r="1"
       cy="29"
       cx="41"
       style="fill:#0b0b28" />
  </g>
</svg>
